# xmcd CD database file
#
# Track frame offsets:
#	150
#	27178
#	100139
#	129161
#	146616
#	174545
#	207313
#	246809
#	277907
#	297946
#
# Disc length: 4280 seconds
#
# Revision: 0
# Processed by: cddbd v1.5.1PL2 Copyright (c) Steve Scherf et al.
# Submitted via: CDex 1.51
#
DISCID=8b10b60a
DTITLE=Manfred Paul Weinberger-Septett - Personal Colour
DYEAR=1999
DGENRE=Jazz
TTITLE0=Personal Colour
TTITLE1=For Kenny
TTITLE2=Number One
TTITLE3=Back from Ljubljana
TTITLE4=Fresh Change
TTITLE5=Reflexion
TTITLE6=Organic Move
TTITLE7=April
TTITLE8=Conversations (I,II,III)
TTITLE9=A Sensitive Friend
EXTD=YEAR: 1999
EXTT0=
EXTT1=
EXTT2=
EXTT3=
EXTT4=
EXTT5=
EXTT6=
EXTT7=
EXTT8=
EXTT9=
PLAYORDER=
